
<svg xmlns="http://www.w3.org/2000/svg" xmlns:xlink="http://www.w3.org/1999/xlink" fill="none" version="1.1" width="450" height="450" viewBox="0 0 450 450"><defs><clipPath id="master_svg0_1_010"><rect x="0" y="0" width="450" height="450" rx="50"/></clipPath><linearGradient x1="0.5" y1="0" x2="0.5" y2="1" id="master_svg1_1_3216"><stop offset="0%" stop-color="#1281D0" stop-opacity="1"/><stop offset="100%" stop-color="#358E95" stop-opacity="0"/></linearGradient><linearGradient x1="0.5" y1="0" x2="0.5" y2="1" id="master_svg2_1_3216"><stop offset="0%" stop-color="#1281D0" stop-opacity="1"/><stop offset="100%" stop-color="#358E95" stop-opacity="0"/></linearGradient></defs><g clip-path="url(#master_svg0_1_010)"><rect x="0" y="0" width="450" height="450" rx="50" fill="#FFFFFF" fill-opacity="1"/><g><path d="M148.4532,148L302.053,148C306.32,148,310.587,149.70675,314,150.56L234.64,219.68C228.667,223.94670000000002,221.84,223.94670000000002,215.8668,219.68L135.6532,150.56C139.92000000000002,147.9999961853,142.48,147.9999961853,148.4532,148ZM122,276.853L122,173.6C122,169.3333,123.70675,163.36,126.26675,159.9468L179.1732,206.88C185.14679999999998,212.8533,186.85320000000002,221.38670000000002,180.88,227.36L127.12,289.653C123.70675,285.387,121.99999809265,281.12,122,276.853ZM302.053,301.6L148.4532,301.6C144.1867,301.6,138.2132,299.89300000000003,135.6532,297.33299999999997L191.12,234.1868C197.0933,228.2133,205.6268,228.2133,211.6,232.48000000000002L221.84,241.01319999999998C223.547,242.72,224.4,242.72,226.107,242.72C227.813,242.72,228.667,242.72,230.373,241.01319999999998L240.613,232.48000000000002C246.587,226.5067,255.12,228.2132,261.09299999999996,234.1868L316.56,297.33299999999997C310.587,299.89300000000003,306.32,301.6,302.053,301.6ZM326.8,276.853C326.8,281.12,325.09299999999996,285.387,324.24,288.8L268.773,228.2133C262.8,222.24,264.507,212,270.48,207.73329999999999L323.387,160.8C325.947,163.36,327.653,169.3332,327.653,174.4533L327.653,276.853L326.8,276.853Z" fill="url(#master_svg1_1_3216)" fill-opacity="1" style="mix-blend-mode:passthrough"/></g><g transform="matrix(0.866025447845459,0.5000000596046448,-0.5000000596046448,0.866025447845459,70.07222437721794,-151.51316295644574)"><path d="M388.5862887695313,128.10739999999998Q391.94598876953125,127.1666,395.03688876953123,126.2259Q397.72468876953127,125.4196,400.54678876953125,124.6133Q403.36898876953126,123.8069,405.25038876953124,123.135L403.36898876953126,130.2576Q402.56268876953123,133.2141,401.89068876953127,134.69240000000002Q400.54678876953125,138.3209,398.7325887695313,141.4118Q396.91838876953125,144.50279999999998,395.30568876953123,146.7874Q393.42428876953124,149.4751,391.40838876953126,151.7597L374.87858876953123,156.732L388.45188876953125,159.151Q385.76408876953127,161.436,382.67318876953124,163.85500000000002Q379.98538876953126,165.87099999999998,376.55848876953127,168.088Q373.1315887695313,170.305,369.3686887695313,172.187Q365.6057887695313,174.06799999999998,360.96938876953124,174.135Q356.33298876953126,174.203,352.16698876953126,173.531Q347.32898876953124,172.85899999999998,342.49098876953127,171.24599999999998Q343.96928876953126,168.961,345.7162887695313,166.139Q347.19458876953126,163.72,349.27758876953123,160.428Q351.36058876953126,157.135,353.6451887695313,153.1036Q360.09588876953126,142.2182,366.14338876953127,131.73579999999998Q372.1908887695312,121.2535,377.0287887695313,112.78710000000001Q382.53878876953127,102.9767,387.64548876953126,94.2414Q381.3292887695313,101.4984,374.34108876953127,110.5025Q368.29358876953125,118.1626,360.9021887695312,128.71210000000002Q353.51078876953125,139.2616,345.85068876953125,151.7597Q344.2379887695312,154.31310000000002,342.2221887695313,157.673Q340.20638876953126,161.03300000000002,337.98898876953126,164.79500000000002Q335.77158876953126,168.558,333.41978876953124,172.523Q331.06798876953127,176.487,328.78338876953126,180.25Q323.40780876953124,188.985,317.76348876953125,198.527Q317.89787776953125,195.705,318.83859876953125,191.27Q319.64492876953125,187.507,321.52636876953125,181.863Q323.40780876953124,176.21800000000002,326.90190876953125,168.558Q329.18648876953125,163.72,330.39598876953124,161.03300000000002Q331.60548876953123,158.345,332.27748876953126,156.86700000000002Q332.94938876953125,155.25400000000002,333.3525887695312,154.7163Q332.68058876953125,153.91,333.0837887695312,151.49099999999999Q333.3525887695312,149.3408,334.62928876953123,145.2419Q335.90598876953123,141.1431,338.99688876953127,133.7517Q342.08778876953124,126.2259,347.12738876953125,117.55789999999999Q352.16698876953126,108.88980000000001,358.48318876953124,100.3561Q364.79948876953125,91.82249999999999,372.1908887695312,83.8263Q379.58218876953123,75.8302,387.3095887695313,69.6484Q395.03688876953123,63.466480000000004,402.76418876953124,59.50202Q410.49158876953123,55.537552,417.74858876953124,55Q417.8824887695313,59.7036,416.80778876953127,67.4309Q415.73268876953125,75.1583,414.12008876953126,83.9607Q412.50738876953125,92.7632,410.49158876953123,101.8344Q408.4757887695313,110.90559999999999,406.59428876953126,118.297L388.5862887695313,128.10739999999998Z" fill="url(#master_svg2_1_3216)" fill-opacity="1" style="mix-blend-mode:passthrough"/></g></g></svg>